<?xml version="1.0" encoding="utf-8"?>
<!-- Generator: Adobe Illustrator 16.0.3, SVG Export Plug-In . SVG Version: 6.00 Build 0)  -->
<!DOCTYPE svg PUBLIC "-//W3C//DTD SVG 1.1//EN" "http://www.w3.org/Graphics/SVG/1.1/DTD/svg11.dtd">
<svg version="1.1" id="Layer_1" xmlns="http://www.w3.org/2000/svg" xmlns:xlink="http://www.w3.org/1999/xlink" x="0px" y="0px"
	 width="1600px" height="1200px" viewBox="0 0 1600 1200" enable-background="new 0 0 1600 1200" xml:space="preserve">
<title>Cessna 172 Sketch</title>
<g>
	<title>Layer 1</title>
	<g id="layer1">
	</g>
	<g id="layer4">
		<path id="path14357" stroke="#000000" stroke-width="3" d="M908.791,910.005c21.048,17.976,39.387,3.346,48.857-20.454
			C946.123,897.368,923.2,909.091,908.791,910.005z"/>
		<path id="path12585" stroke="#000000" stroke-width="3" d="M555.508,979.004c22.55,16.051,39.527-0.138,46.864-24.68
			C591.58,963.127,569.779,976.824,555.508,979.004z"/>
		<path id="path12336" fill="none" stroke="#000000" stroke-width="3" d="M794,475.428l95.714,4.286L1064,411.143
			c0,0,110.034-69.342,135.714-90c13.768-19.268,93.572-211.429,93.572-211.429c31.904-27.381,58.809-29.762,89.285-37.144
			l-41.429,245.715c11.19,5.476,5.952,15.238-10.714,25.714l49.285-14.285c0,0,148.325,66.283,147.144,80
			c-8.547,18.025-47.995,43.927-81.429,50.714c-41.783-3.906-160.715-46.071-214.286-60.714"/>
		<path id="path12338" fill="none" stroke="#000000" stroke-width="3" d="M1260.429,409.715l-198.571,186.429"/>
		<path id="path12340" fill="none" stroke="#000000" stroke-width="3" d="M920.97,535.76l660.274,303.954
			c0,0-95.654,76.551-148.673,78.571c-8.565,0.326-405.714-131.429-405.714-131.429S743.243,657.99,719,647.572"/>
		<path id="path12342" fill="none" stroke="#000000" stroke-width="3" d="M961.857,758.286l-197.857,70l-32.857,18.571"/>
		<path id="path12344" fill="none" stroke="#000000" stroke-width="3" d="M731.959,847.521
			c-55.772,24.632-115.029,48.081-179.388,61.602c-19.581,0.563-37.143,3.651-55.714-0.837
			c-22.555-5.988-39.301-14.755-58.824-28.318"/>
		<path id="path12346" fill="none" stroke="#000000" stroke-width="3" d="M411.576,844.464
			c-10.982-16.522-15.398-45.167-1.127-64.72c34.763-38.898,69.524-68.706,116.408-100.029
			c10.778-38.86,18.527-66.609,41.429-101.429L305.01,460.969L28.561,302.846c0,0-24.802-12.175-15.152-36.306
			c15.495-38.747,115.296-60.521,115.296-60.521c225.69,82.731,441.279,168.494,671.01,269.408"/>
		<path id="path12348" fill="none" stroke="#000000" stroke-width="3" d="M1138.806,360.653l-73.969-49.755
			c-9.221-6.249-19.105-9.048-20.245-21.357c31.904-31.4,55.729-31.486,89.653-40.663l84.979,26.97"/>
		<path id="path12350" fill="none" stroke="#000000" stroke-width="3" d="M349.439,481.95
			c2.857,5.715,163.983,203.407,163.983,203.407"/>
		<path id="path12352" fill="none" stroke="#000000" stroke-width="3" d="M398.776,504.735l129.121,165.601"/>
		<path id="path12354" fill="none" stroke="#000000" stroke-width="3" d="M942.571,750.428l-178.571,65"/>
		<path id="path1893" fill="none" stroke="#000000" stroke-width="3" d="M1231.143,399c1.429-18.571,99.286-55,99.286-55"/>
		<path id="path2781" fill="none" stroke="#000000" stroke-width="3" d="M1304.714,354l197.857,77.857"/>
		<path id="path2783" fill="none" stroke="#000000" stroke-width="3" d="M1346.857,101.857c-1.429,5-63.571,240.714-63.571,240.714"
			/>
		<path id="path2785" fill="none" stroke="#000000" stroke-width="3" d="M1290.429,117.571c20,9.286,90.714-37.143,90.714-37.143"/>
		<path id="path2787" fill="none" stroke="#000000" stroke-width="3" d="M1064,411.857c-3.571,0-87.857,57.857-87.857,57.857
			c-7.878,4.672-6.957,12.269,5,7.857L1339,319.715"/>
		<path id="path3674" fill="none" stroke="#000000" stroke-width="3" d="M1083.286,262.571
			c4.285,2.857,119.285,54.286,119.285,54.286"/>
		<path id="path4561" fill="none" stroke="#000000" stroke-width="2" d="M718.698,647.026c-7.765-8.335,2.425-28.695,10.692-37.498
			c29.124,11.177,292.944,134.351,292.944,134.351l411.133,145.462"/>
		<path id="path4563" fill="none" stroke="#000000" stroke-width="2" d="M1419.325,906.512
			c-5.051-26.264,122.229-76.771,122.229-76.771"/>
		<path id="path4565" fill="none" stroke="#000000" stroke-width="2" d="M1518.32,837.822l-355.574-166.675"/>
		<path id="path4567" fill="none" stroke="#000000" stroke-width="2" d="M1185.979,657.006c0,0-38.385,24.243-41.416,20.203
			c-3.03-4.041-275.771-125.26-275.771-125.26s30.385-6.479,52.528-16.162c8.285-8.847-2.786-12.663-17.173-22.224
			c-13.799-9.169-105.056-38.386-105.056-38.386"/>
		<path id="path4569" fill="none" stroke="#000000" stroke-width="2" d="M19.254,285.269
			c-4.041-23.234,116.167-66.671,116.167-66.671"/>
		<path id="path4571" fill="none" stroke="#000000" stroke-width="2" d="M28.345,267.086l306.077,169.706
			c0,0,206.07,82.327,266.68,114.147c-11.533,5.392-18.153,9.049-32.815,26.703"/>
		<path id="path4573" fill="none" stroke="#000000" stroke-width="3" d="M715.249,492.35
			c-39.814,10.785-82.486,31.569-119.443,54.497"/>
		<path id="path4575" fill="none" stroke="#000000" stroke-width="2" d="M533.422,362.041c-5.051,1.01-59.6,14.142-59.6,14.142
			S727.371,492.35,731.411,489.32c4.041-3.03,67.428-14.143,67.428-14.143"/>
		<path id="path4577" fill="none" stroke="#000000" stroke-width="2" d="M488.975,371.132L125.32,223.649"/>
		<path id="path4579" fill="none" stroke="#000000" stroke-width="2" d="M661.364,806.854
			c-37.887,26.104-129.972,72.486-161.992,57.405"/>
		<path id="path4581" fill="none" stroke="#000000" stroke-width="3" d="M403.458,792.488
			c53.876-25.448,180.687,92.507,92.495,116.117"/>
		<path id="path4583" fill="none" stroke="#000000" stroke-width="2" d="M516.523,688.024
			c66.315-5.102,149.095,51.095,146.197,107.372c-1.999,39.548-7.265,72.456-17.366,85.588"/>
		<path id="path4585" fill="none" stroke="#000000" stroke-width="2" d="M745.554,801.457c0-5.051,2.611-138.463,2.611-138.463"/>
		<path id="path4587" fill="none" stroke="#000000" stroke-width="3" d="M732.299,845.802c-5.427-13.01,14.929-32.692,31.387-29.785
			"/>
		<path id="path1901" fill="none" stroke="#000000" stroke-width="3" d="M855.864,557.466
			c-39.814,10.785-82.485,31.57-119.443,54.498"/>
		<path id="path1903" fill="none" stroke="#000000" stroke-width="3" d="M591.871,555.414l131.827,60.282"/>
		<path id="path1905" fill="none" stroke="#000000" d="M596.337,575.927l113.565,51.443"/>
		<path id="path1907" fill="none" stroke="#000000" stroke-width="3" d="M526.914,678.452c51.761-6.86,117.665,42.374,137.47,53.645
			c22.596,1.979,44.199,4.061,69.913-11.654c1.724-24.048,1.404-24.018,2.135-64.783"/>
		<path id="path1909" fill="none" stroke="#000000" d="M542.138,669.051c18.681-32.706,43.167-19.734,89.121-6.212
			c46.497,13.683,72.749,44.301,68.455,61.444"/>
		<path id="path1911" fill="none" stroke="#000000" d="M647.514,636.446l-42.706,17.728"/>
		<path id="path1913" fill="none" stroke="#000000" d="M589.88,589.036l-2.272,60.109"/>
		<path id="path1915" fill="none" stroke="#000000" d="M575.508,619.808l-0.419,28.161"/>
		<path id="path1917" fill="none" stroke="#000000" stroke-width="2" d="M642.563,543.835c12.843-6.11,37.249-14.574,52.843-20.751
			c6.962-2.627,36.171-1.283,22.872,10.058c-19.137,7.727-39.474,19.487-62.28,26.818
			C618.927,558.914,637.514,544.174,642.563,543.835z"/>
		<path id="path1923" fill="none" stroke="#000000" stroke-width="3" d="M907.393,838.465c-18.214,8.571-35,60-14.464,70.714
			c23.73,5.052,77.544-22.29,94.821-46.606c14.464-20.357,17.143-46.25,0-46.786c-18.214,5.357-36.807,10.3-53.036,10
			C924.106,825.59,916.321,832.572,907.393,838.465z"/>
		<path id="path1925" fill="none" stroke="#000000" stroke-width="3" d="M558.727,908.855
			c-28.326,11.659-44.286,69.352-15.477,71.451c37.143-1.436,65.483-32.872,83.362-46.652
			c26.316-20.286,12.842-48.832,12.842-48.832"/>
		<path id="path1927" fill="none" stroke="#000000" stroke-width="3" d="M901.063,731.806
			c-8.217,11.703-25.851,18.926-32.929,27.158c4.286,10,7.128,14.617,7.128,14.617"/>
		<path id="path1929" fill="none" stroke="#000000" stroke-width="3" d="M833.784,780.14c0.159-17.979,27.995-22.604,36.148-24.019"
			/>
		<path id="path2818" fill="none" stroke="#000000" stroke-width="3" d="M642.702,904.078
			c-32.079,31.154-81.99,70.213-114.01,60.184"/>
		<path id="path2826" fill="none" stroke="#000000" stroke-width="3" d="M997.518,842.032
			c-30.563,25.345-98.657,61.374-113.757,44.021"/>
		<path id="path2828" fill="none" stroke="#000000" stroke-width="3" d="M854.65,796.154c1.263,2.02,41.921,52.022,41.921,52.022"/>
		<path id="path2830" fill="none" stroke="#000000" stroke-width="3" d="M883.691,786.052c1.263,3.282,29.295,47.982,29.295,47.982"
			/>
		<path id="path3717" fill="none" stroke="#000000" stroke-width="3" d="M758.686,666.096c0.253,6.945,0.126,33.083,0.379,39.175
			c0.252,5.083,2.904,4.767,7.197,3.757c12.374-4.041,34.093-16.92,43.184-20.203"/>
		<path id="path5489" fill="none" stroke="#000000" stroke-width="2" d="M704.742,573.267c12.843-6.11,35.229-18.614,50.822-24.791
			c6.962-2.626,37.686-0.777,24.387,10.563c-19.137,7.728-38.968,23.023-61.775,30.354
			C681.105,588.347,699.691,573.607,704.742,573.267z"/>
		<path id="path5491" fill="none" stroke="#000000" stroke-width="3" d="M817.636,795.789
			c13.431-15.829,23.629-20.608,31.097-10.887"/>
		<path id="path5493" fill="none" stroke="#000000" stroke-width="3" d="M402.728,874.928c23.73,5.051,58.804,9.445,70.83-4.938
			c13.507-16.155-12.404-54.332-29.547-54.867C428.144,818.649,404.17,849.379,402.728,874.928z"/>
		<path id="path5495" fill="none" stroke="#000000" stroke-width="3" d="M468.12,875.629c46.539,17.172,39.063-16.018,3.283-36.113"
			/>
		<path id="path5497" fill="none" stroke="#000000" stroke-width="3" d="M419.021,832.047c-7.648-9.597-8.001-29.654,17.93-14.646"
			/>
		<path id="path5499" fill="none" stroke="#000000" stroke-width="2" d="M805.607,476.5c8.035,0.179,83.393,3.036,83.393,3.036
			L928.107,494l-72.321,0.357L805.607,476.5z"/>
		<path id="path6386" fill="none" stroke="#000000" stroke-width="2" d="M877.393,501.143c1.071,0.179,56.288-4.052,63.036-0.894
			C996.5,526.5,980.25,543.107,972.571,559c-9.643-2.678-50.893-23.393-50.893-23.393s16.429-5.535-23.929-25.357
			C884.54,503.735,882.387,504.822,877.393,501.143z"/>
		<path id="path11698" fill="none" stroke="#000000" stroke-width="3" d="M591.857,555.072
			c-27.756,16.648-51.902,69.764-64.644,123.571c55.596-6.429,114.763,42.5,136.786,53.571c32.143,5.477,51.786-1.548,69.643-11.429
			L736.5,656.5l-14.643-7.856c-5.238-2.262-5.834-6.31-6.071-12.144c0,0,2.143-8.928,4.643-13.571
			c1.446-2.687,3.571-7.143,3.571-7.143L591.857,555.072z"/>
	</g>
</g>
<g>
	<title>Layer 1</title>
	<g id="layer1_1_">
	</g>
	<g id="layer4_1_">
		<path id="path14357_1_" fill="#FFFFFF" stroke="#FFFFFF" stroke-width="3" d="M2876.88,987.369
			c21.048,17.976,39.387,3.346,48.857-20.454C2914.212,974.732,2891.289,986.455,2876.88,987.369z"/>
		<path id="path12585_1_" fill="#FFFFFF" stroke="#FFFFFF" stroke-width="3" d="M2523.597,1056.368
			c22.55,16.051,39.527-0.138,46.864-24.68C2559.669,1040.491,2537.868,1054.188,2523.597,1056.368z"/>
		<path id="path12336_1_" fill="none" stroke="#FFFFFF" stroke-width="3" d="M2762.089,552.793l95.714,4.286l174.286-68.571
			c0,0,110.034-69.342,135.714-90c13.768-19.268,93.572-211.429,93.572-211.429c31.904-27.381,58.809-29.762,89.285-37.144
			l-41.429,245.715c11.19,5.476,5.952,15.238-10.714,25.714l49.285-14.285c0,0,148.325,66.283,147.144,80
			c-8.547,18.025-47.995,43.927-81.429,50.714c-41.783-3.906-160.715-46.071-214.286-60.714"/>
		<path id="path12338_1_" fill="none" stroke="#FFFFFF" stroke-width="3" d="M3228.518,487.079l-198.571,186.429"/>
		<path id="path12340_1_" fill="none" stroke="#FFFFFF" stroke-width="3" d="M2889.059,613.125l660.274,303.954
			c0,0-95.654,76.551-148.673,78.571c-8.565,0.326-405.714-131.429-405.714-131.429s-283.614-128.867-307.857-139.285"/>
		<path id="path12342_1_" fill="none" stroke="#FFFFFF" stroke-width="3" d="M2929.946,835.65l-197.857,70l-32.857,18.571"/>
		<path id="path12344_1_" fill="none" stroke="#FFFFFF" stroke-width="3" d="M2700.048,924.885
			c-55.772,24.632-115.029,48.081-179.388,61.602c-19.581,0.563-37.143,3.651-55.714-0.837
			c-22.555-5.988-39.301-14.755-58.824-28.318"/>
		<path id="path12346_1_" fill="none" stroke="#FFFFFF" stroke-width="3" d="M2379.665,921.828
			c-10.982-16.522-15.398-45.167-1.127-64.72c34.763-38.898,69.524-68.706,116.408-100.029
			c10.778-38.86,18.527-66.609,41.429-101.429l-263.276-117.316l-276.449-158.123c0,0-24.802-12.175-15.152-36.306
			c15.495-38.747,115.296-60.521,115.296-60.521c225.69,82.731,441.279,168.494,671.01,269.408"/>
		<path id="path12348_1_" fill="none" stroke="#FFFFFF" stroke-width="3" d="M3106.895,438.017l-73.969-49.755
			c-9.221-6.249-19.105-9.048-20.245-21.357c31.904-31.4,55.729-31.486,89.653-40.663l84.979,26.97"/>
		<path id="path12350_1_" fill="none" stroke="#FFFFFF" stroke-width="3" d="M2317.528,559.314
			c2.857,5.715,163.983,203.407,163.983,203.407"/>
		<path id="path12352_1_" fill="none" stroke="#FFFFFF" stroke-width="3" d="M2366.865,582.099L2495.986,747.7"/>
		<path id="path12354_1_" fill="none" stroke="#FFFFFF" stroke-width="3" d="M2910.66,827.793l-178.571,65"/>
		<path id="path1893_1_" fill="none" stroke="#FFFFFF" stroke-width="3" d="M3199.231,476.364c1.429-18.571,99.286-55,99.286-55"/>
		<path id="path2781_1_" fill="none" stroke="#FFFFFF" stroke-width="3" d="M3272.803,431.364l197.857,77.857"/>
		<path id="path2783_1_" fill="none" stroke="#FFFFFF" stroke-width="3" d="M3314.946,179.221
			c-1.429,5-63.571,240.714-63.571,240.714"/>
		<path id="path2785_1_" fill="none" stroke="#FFFFFF" stroke-width="3" d="M3258.518,194.935c20,9.286,90.714-37.143,90.714-37.143
			"/>
		<path id="path2787_1_" fill="none" stroke="#FFFFFF" stroke-width="3" d="M3032.089,489.221c-3.571,0-87.857,57.857-87.857,57.857
			c-7.878,4.672-6.957,12.269,5,7.857l357.857-157.857"/>
		<path id="path3674_1_" fill="none" stroke="#FFFFFF" stroke-width="3" d="M3051.375,339.935
			c4.285,2.857,119.285,54.286,119.285,54.286"/>
		<path id="path4561_1_" fill="none" stroke="#FFFFFF" stroke-width="2" d="M2686.787,724.39
			c-7.765-8.335,2.425-28.695,10.692-37.498c29.124,11.177,292.944,134.351,292.944,134.351l411.133,145.462"/>
		<path id="path4563_1_" fill="none" stroke="#FFFFFF" stroke-width="2" d="M3387.414,983.877
			c-5.051-26.264,122.229-76.771,122.229-76.771"/>
		<path id="path4565_1_" fill="none" stroke="#FFFFFF" stroke-width="2" d="M3486.409,915.186l-355.574-166.675"/>
		<path id="path4567_1_" fill="none" stroke="#FFFFFF" stroke-width="2" d="M3154.068,734.37c0,0-38.385,24.243-41.416,20.203
			c-3.03-4.041-275.771-125.26-275.771-125.26s30.385-6.479,52.528-16.162c8.285-8.847-2.786-12.663-17.173-22.224
			c-13.799-9.169-105.056-38.386-105.056-38.386"/>
		<path id="path4569_1_" fill="none" stroke="#FFFFFF" stroke-width="2" d="M1987.343,362.634
			c-4.04-23.234,116.167-66.671,116.167-66.671"/>
		<path id="path4571_1_" fill="none" stroke="#FFFFFF" stroke-width="2" d="M1996.434,344.45l306.077,169.706
			c0,0,206.07,82.327,266.68,114.147c-11.533,5.392-18.153,9.049-32.815,26.703"/>
		<path id="path4573_1_" fill="none" stroke="#FFFFFF" stroke-width="3" d="M2683.338,569.715
			c-39.814,10.785-82.486,31.569-119.443,54.497"/>
		<path id="path4575_1_" fill="none" stroke="#FFFFFF" stroke-width="2" d="M2501.511,439.405c-5.051,1.01-59.6,14.142-59.6,14.142
			S2695.46,569.715,2699.5,566.684c4.041-3.03,67.428-14.143,67.428-14.143"/>
		<path id="path4577_1_" fill="none" stroke="#FFFFFF" stroke-width="2" d="M2457.063,448.496l-363.655-147.482"/>
		<path id="path4579_1_" fill="none" stroke="#FFFFFF" stroke-width="2" d="M2629.453,884.219
			c-37.887,26.104-129.972,72.486-161.992,57.405"/>
		<path id="path4581_1_" fill="none" stroke="#FFFFFF" stroke-width="3" d="M2371.547,869.852
			c53.876-25.448,180.687,92.507,92.495,116.117"/>
		<path id="path4583_1_" fill="none" stroke="#FFFFFF" stroke-width="2" d="M2484.612,765.388
			c66.315-5.102,149.095,51.095,146.197,107.372c-1.999,39.548-7.265,72.456-17.366,85.588"/>
		<path id="path4585_1_" fill="none" stroke="#FFFFFF" stroke-width="2" d="M2713.643,878.821c0-5.051,2.611-138.463,2.611-138.463"
			/>
		<path id="path4587_1_" fill="none" stroke="#FFFFFF" stroke-width="3" d="M2700.388,923.167
			c-5.427-13.01,14.929-32.692,31.387-29.785"/>
		<path id="path1901_1_" fill="none" stroke="#FFFFFF" stroke-width="3" d="M2823.953,634.83
			c-39.814,10.785-82.485,31.57-119.443,54.498"/>
		<path id="path1903_1_" fill="none" stroke="#FFFFFF" stroke-width="3" d="M2559.96,632.778l131.827,60.282"/>
		<path id="path1905_1_" fill="none" stroke="#FFFFFF" d="M2564.426,653.291l113.565,51.443"/>
		<path id="path1907_1_" fill="none" stroke="#FFFFFF" stroke-width="3" d="M2495.003,755.816
			c51.761-6.86,117.665,42.374,137.47,53.645c22.596,1.979,44.199,4.061,69.913-11.654c1.724-24.048,1.404-24.018,2.135-64.783"/>
		<path id="path1909_1_" fill="none" stroke="#FFFFFF" d="M2510.227,746.415c18.681-32.706,43.167-19.734,89.121-6.212
			c46.497,13.683,72.749,44.301,68.455,61.444"/>
		<path id="path1911_1_" fill="none" stroke="#FFFFFF" d="M2615.603,713.81l-42.706,17.728"/>
		<path id="path1913_1_" fill="none" stroke="#FFFFFF" d="M2557.969,666.4l-2.272,60.109"/>
		<path id="path1915_1_" fill="none" stroke="#FFFFFF" d="M2543.597,697.173l-0.419,28.161"/>
		<path id="path1917_1_" fill="none" stroke="#FFFFFF" stroke-width="2" d="M2610.652,621.199
			c12.843-6.11,37.249-14.574,52.843-20.751c6.962-2.627,36.171-1.283,22.872,10.058c-19.137,7.727-39.474,19.487-62.28,26.818
			C2587.016,636.278,2605.603,621.538,2610.652,621.199z"/>
		<path id="path1923_1_" fill="none" stroke="#FFFFFF" stroke-width="3" d="M2875.481,915.829c-18.214,8.571-35,60-14.464,70.714
			c23.73,5.052,77.544-22.29,94.821-46.606c14.464-20.357,17.143-46.25,0-46.786c-18.214,5.357-36.807,10.3-53.036,10
			C2892.195,902.954,2884.41,909.936,2875.481,915.829z"/>
		<path id="path1925_1_" fill="none" stroke="#FFFFFF" stroke-width="3" d="M2526.815,986.219
			c-28.326,11.659-44.286,69.352-15.477,71.451c37.143-1.436,65.483-32.872,83.362-46.652
			c26.316-20.286,12.842-48.832,12.842-48.832"/>
		<path id="path1927_1_" fill="none" stroke="#FFFFFF" stroke-width="3" d="M2869.152,809.171
			c-8.217,11.703-25.851,18.926-32.929,27.158c4.286,10,7.128,14.617,7.128,14.617"/>
		<path id="path1929_1_" fill="none" stroke="#FFFFFF" stroke-width="3" d="M2801.873,857.505
			c0.159-17.979,27.995-22.604,36.148-24.019"/>
		<path id="path2818_1_" fill="none" stroke="#FFFFFF" stroke-width="3" d="M2610.791,981.442
			c-32.079,31.154-81.99,70.213-114.01,60.184"/>
		<path id="path2826_1_" fill="none" stroke="#FFFFFF" stroke-width="3" d="M2965.606,919.396
			c-30.563,25.345-98.657,61.374-113.757,44.021"/>
		<path id="path2828_1_" fill="none" stroke="#FFFFFF" stroke-width="3" d="M2822.739,873.518
			c1.263,2.02,41.921,52.022,41.921,52.022"/>
		<path id="path2830_1_" fill="none" stroke="#FFFFFF" stroke-width="3" d="M2851.78,863.417
			c1.263,3.282,29.295,47.982,29.295,47.982"/>
		<path id="path3717_1_" fill="none" stroke="#FFFFFF" stroke-width="3" d="M2726.774,743.461
			c0.253,6.945,0.126,33.083,0.379,39.175c0.252,5.083,2.904,4.767,7.197,3.757c12.374-4.041,34.093-16.92,43.184-20.203"/>
		<path id="path5489_1_" fill="none" stroke="#FFFFFF" stroke-width="2" d="M2672.831,650.632
			c12.843-6.11,35.229-18.614,50.822-24.791c6.962-2.626,37.686-0.777,24.387,10.563c-19.137,7.728-38.968,23.023-61.775,30.354
			C2649.194,665.712,2667.78,650.971,2672.831,650.632z"/>
		<path id="path5491_1_" fill="none" stroke="#FFFFFF" stroke-width="3" d="M2785.725,873.153
			c13.431-15.829,23.629-20.608,31.097-10.887"/>
		<path id="path5493_1_" fill="none" stroke="#FFFFFF" stroke-width="3" d="M2370.816,952.293c23.73,5.051,58.804,9.445,70.83-4.938
			c13.507-16.155-12.404-54.332-29.547-54.867C2396.232,896.013,2372.259,926.743,2370.816,952.293z"/>
		<path id="path5495_1_" fill="none" stroke="#FFFFFF" stroke-width="3" d="M2436.209,952.993
			c46.539,17.172,39.063-16.018,3.283-36.113"/>
		<path id="path5497_1_" fill="none" stroke="#FFFFFF" stroke-width="3" d="M2387.109,909.411
			c-7.648-9.597-8.001-29.654,17.93-14.646"/>
		<path id="path5499_1_" fill="none" stroke="#FFFFFF" stroke-width="2" d="M2773.696,553.864
			c8.035,0.179,83.393,3.036,83.393,3.036l39.107,14.464l-72.321,0.357L2773.696,553.864z"/>
		<path id="path6386_1_" fill="none" stroke="#FFFFFF" stroke-width="2" d="M2845.481,578.508
			c1.071,0.179,56.288-4.052,63.036-0.894c56.071,26.25,39.821,42.857,32.143,58.75c-9.643-2.678-50.893-23.393-50.893-23.393
			s16.429-5.535-23.929-25.357C2852.629,581.099,2850.476,582.186,2845.481,578.508z"/>
		<path id="path11698_1_" fill="none" stroke="#FFFFFF" stroke-width="3" d="M2559.946,632.436
			c-27.756,16.648-51.902,69.764-64.644,123.571c55.596-6.429,114.763,42.5,136.786,53.571c32.143,5.477,51.786-1.548,69.643-11.429
			l2.857-64.286l-14.643-7.856c-5.238-2.262-5.834-6.31-6.071-12.144c0,0,2.143-8.928,4.643-13.571
			c1.446-2.687,3.571-7.143,3.571-7.143L2559.946,632.436z"/>
	</g>
</g>
</svg>
